<?xml version="1.0" standalone="no"?>
<!DOCTYPE svg PUBLIC "-//W3C//DTD SVG 20010904//EN"
 "http://www.w3.org/TR/2001/REC-SVG-20010904/DTD/svg10.dtd">
<svg version="1.0" xmlns="http://www.w3.org/2000/svg"
 width="260.000000pt" height="260.000000pt" viewBox="0 0 260.000000 260.000000"
 preserveAspectRatio="xMidYMid meet">
<metadata>
Created by potrace 1.14, written by Peter Selinger 2001-2017
</metadata>
<g transform="translate(0.000000,260.000000) scale(0.100000,-0.100000)"
fill="#000000" stroke="none">
<path d="M1338 2523 c-28 -4 -72 -49 -63 -63 3 -5 -17 -11 -44 -15 -34 -5 -57
-15 -75 -33 -14 -15 -40 -39 -58 -55 -18 -15 -48 -41 -67 -57 -18 -16 -42 -32
-52 -35 -11 -4 -19 -11 -19 -16 0 -6 -5 -7 -11 -3 -6 3 -14 3 -18 -2 -10 -15
-111 -66 -111 -57 0 4 -5 0 -11 -9 -5 -10 -17 -18 -25 -18 -8 0 -42 -14 -77
-31 -68 -35 -67 -30 13 53 25 26 51 48 58 48 6 0 12 7 12 15 0 8 7 15 15 15 8
0 15 5 15 10 0 6 7 10 15 10 15 0 38 34 29 43 -3 3 3 3 14 0 12 -3 28 3 39 14
11 11 24 18 30 16 6 -2 21 10 33 27 19 26 19 31 6 36 -9 3 -13 10 -11 15 8 11
-45 24 -54 13 -3 -5 -17 -15 -31 -22 -50 -25 -95 -54 -103 -68 -4 -8 -15 -14
-23 -14 -8 0 -12 -4 -9 -10 3 -5 1 -10 -6 -10 -7 0 -29 -18 -51 -40 -21 -23
-38 -38 -38 -35 0 4 -18 -12 -40 -35 -22 -23 -40 -46 -40 -51 0 -5 -4 -9 -8
-9 -5 0 -18 -18 -31 -40 -20 -36 -21 -44 -10 -75 7 -19 20 -36 29 -36 8 -1 26
-3 40 -4 14 -2 39 4 55 13 17 9 41 17 55 19 22 2 21 0 -7 -12 -18 -9 -33 -22
-33 -30 0 -27 -2 -30 -37 -46 -18 -8 -56 -37 -83 -62 -38 -36 -50 -54 -50 -77
0 -27 -3 -30 -33 -30 -38 0 -57 -15 -57 -46 0 -15 -8 -24 -24 -28 -33 -8 -66
-64 -61 -103 2 -19 -2 -36 -11 -43 -18 -16 -18 -40 2 -68 14 -20 14 -23 0 -28
-9 -3 -16 -13 -16 -21 0 -8 -16 -29 -35 -45 -19 -17 -32 -34 -30 -38 2 -4 -6
-12 -19 -18 -21 -9 -38 -46 -40 -86 -1 -4 -17 -13 -36 -20 -27 -8 -38 -19 -46
-46 -6 -19 -22 -40 -35 -47 -50 -26 -57 -47 -58 -189 -2 -108 1 -135 14 -148
9 -8 15 -18 14 -21 -1 -3 1 -18 4 -34 5 -22 16 -32 54 -47 55 -21 70 -20 99 7
26 24 38 24 25 0 -6 -10 -7 -21 -4 -25 3 -3 -1 -6 -9 -6 -25 0 -37 -49 -22
-87 15 -35 36 -37 81 -7 25 16 25 16 18 -15 -8 -40 5 -63 46 -76 27 -9 35 -19
40 -46 4 -18 18 -43 31 -54 13 -11 31 -30 42 -42 18 -22 18 -22 -8 -46 -14
-13 -26 -30 -26 -37 0 -15 -39 -82 -54 -92 -6 -4 -7 -10 -3 -14 4 -4 -2 -13
-12 -20 -31 -22 -33 -53 -4 -80 43 -40 42 -41 181 110 29 32 50 61 47 66 -3 4
3 7 13 6 9 0 16 5 14 12 -1 6 5 12 13 12 8 0 12 6 9 14 -3 8 3 16 16 19 13 3
19 10 15 17 -8 13 22 50 42 50 7 0 13 4 13 9 0 13 49 -11 55 -27 2 -7 1 -22
-4 -35 -4 -12 -6 -28 -4 -35 6 -16 56 -42 83 -42 12 0 24 -9 29 -22 5 -13 19
-33 31 -46 20 -21 28 -23 74 -17 28 4 56 11 63 17 7 6 20 -4 40 -33 46 -68 62
-81 90 -76 14 2 37 0 53 -6 22 -8 38 -7 74 7 25 10 46 22 46 27 0 4 13 6 28 3
20 -4 34 0 47 13 10 10 37 23 59 28 33 9 44 18 58 48 17 34 49 62 60 52 3 -3
13 4 23 15 10 11 26 20 36 20 10 0 27 14 39 31 12 16 25 28 28 25 3 -3 11 -1
18 5 9 7 21 6 41 -4 24 -13 32 -13 66 0 33 13 44 14 78 3 33 -11 41 -11 56 2
10 9 27 18 38 19 11 2 27 19 35 36 12 27 21 33 47 33 54 0 94 57 91 129 -1 24
8 55 26 88 16 28 26 59 24 69 -2 11 3 24 11 30 9 7 16 22 16 35 1 13 10 37 20
52 17 26 17 30 2 65 -9 20 -17 46 -19 57 -4 24 -49 48 -96 50 -26 2 -38 10
-53 34 -10 17 -25 34 -33 37 -12 5 -12 8 1 22 33 38 75 114 77 140 1 15 11 38
23 51 15 16 22 36 21 61 0 21 2 43 6 48 3 6 -2 18 -11 28 -10 9 -23 33 -28 53
-8 28 -17 37 -45 45 -19 6 -41 18 -48 28 -8 11 -26 18 -44 18 -29 0 -30 1 -24
33 17 80 18 158 2 182 -15 23 -14 25 34 66 43 37 50 47 46 72 -5 31 -34 59
-51 49 -5 -3 -24 -16 -41 -29 l-30 -23 -42 39 c-36 34 -41 44 -46 96 -3 32
-10 63 -16 70 -5 6 -8 21 -6 32 6 27 -20 63 -45 63 -12 0 -17 4 -13 11 3 6 -3
24 -15 40 -12 16 -19 34 -16 39 8 13 -31 50 -53 50 -15 0 -18 6 -14 32 3 18
11 38 18 46 8 7 14 17 14 21 0 8 -47 51 -56 51 -3 0 -26 -14 -51 -30 -48 -33
-80 -33 -117 2 -11 10 -28 18 -39 18 -10 0 -32 11 -49 25 -16 14 -33 24 -36
24 -4 -1 -19 -4 -34 -6z m-742 -2138 c-1 -8 -8 -21 -16 -28 -10 -10 -12 -9 -6
6 3 10 6 23 6 28 0 5 4 9 9 9 5 0 8 -7 7 -15z"/>
</g>
</svg>
